<?xml version="1.0" standalone="no"?>
<!DOCTYPE svg PUBLIC "-//W3C//DTD SVG 20010904//EN"
 "http://www.w3.org/TR/2001/REC-SVG-20010904/DTD/svg10.dtd">
<svg version="1.0" xmlns="http://www.w3.org/2000/svg"
 width="564.000000pt" height="564.000000pt" viewBox="0 0 564.000000 564.000000"
 preserveAspectRatio="xMidYMid meet">
<metadata>
Created by potrace 1.14, written by Peter Selinger 2001-2017
</metadata>
<g transform="translate(0.000000,564.000000) scale(0.100000,-0.100000)"
fill="#000000" stroke="none">
<path d="M3260 4505 c0 -9 -15 -35 -33 -58 -52 -65 -75 -108 -102 -193 -14
-43 -30 -86 -35 -95 -4 -9 -14 -45 -20 -80 -7 -35 -19 -83 -26 -107 -15 -45
-10 -92 10 -92 6 0 25 29 41 65 16 36 32 65 37 65 4 0 8 6 8 13 0 6 10 28 22
47 15 23 23 53 24 86 1 27 11 68 22 90 11 22 23 72 27 116 6 72 8 77 28 75 19
-2 22 3 22 37 0 23 -5 41 -12 44 -7 2 -13 -4 -13 -13z"/>
<path d="M4427 3817 c-3 -9 5 -36 18 -62 19 -34 24 -60 24 -106 -1 -44 3 -66
15 -77 39 -39 5 185 -37 242 -12 17 -15 17 -20 3z"/>
<path d="M3340 3571 c0 -13 61 -70 75 -71 6 0 33 -18 62 -40 29 -21 55 -35 57
-31 3 5 -2 27 -12 50 -12 29 -25 43 -42 48 -14 3 -32 11 -40 18 -8 7 -26 16
-40 20 -14 3 -33 9 -42 11 -10 3 -18 0 -18 -5z"/>
<path d="M1775 3008 c-11 -6 -25 -18 -31 -26 -6 -8 -16 -12 -22 -8 -5 3 -17 4
-25 0 -12 -4 -12 -10 -3 -30 6 -13 14 -24 19 -24 4 0 7 -9 7 -20 0 -11 8 -24
18 -27 9 -4 20 -11 24 -17 4 -6 8 -1 8 12 0 17 6 22 24 22 16 0 26 -7 30 -22
9 -37 84 -113 107 -110 11 2 26 -2 34 -8 26 -22 126 -29 168 -13 20 9 52 13
70 10 43 -6 74 10 86 44 6 18 19 31 35 35 50 12 56 2 52 -88 -5 -89 3 -149 19
-148 5 0 9 19 8 43 -1 23 1 32 4 19 3 -14 11 -22 20 -20 20 4 51 55 52 84 1
33 42 74 67 68 17 -5 22 -16 27 -60 3 -29 8 -58 12 -64 3 -5 27 -10 53 -10 96
0 161 -84 98 -125 -18 -12 -30 -14 -44 -6 -37 20 -201 1 -263 -30 -36 -18 -99
-81 -99 -99 0 -6 -7 -10 -15 -10 -9 0 -27 -12 -41 -27 -14 -16 -29 -28 -32
-28 -7 -1 -46 -24 -92 -55 -14 -9 -44 -25 -67 -35 -24 -10 -43 -22 -43 -27 0
-4 -7 -8 -15 -8 -16 0 -20 -27 -7 -46 4 -6 22 -17 39 -25 26 -11 32 -18 27
-34 -8 -26 -24 -36 -47 -31 -9 2 -21 -3 -27 -12 -9 -16 -9 -16 -10 1 0 15 -7
16 -56 11 -42 -5 -58 -4 -64 7 -15 24 -24 0 -25 -70 -1 -59 -5 -72 -28 -96
-14 -16 -24 -33 -21 -37 3 -5 0 -15 -6 -23 -10 -12 -6 -19 17 -39 15 -14 31
-26 36 -26 18 0 151 -146 148 -163 -1 -10 5 -27 15 -38 9 -10 13 -19 9 -19 -4
0 0 -9 10 -20 14 -16 19 -42 23 -118 4 -97 -5 -142 -49 -224 -5 -10 -9 -29 -9
-42 0 -14 -4 -28 -10 -31 -5 -3 -10 -12 -10 -20 0 -21 -60 -105 -75 -105 -15
0 -278 260 -454 448 -63 67 -121 122 -128 122 -7 0 -13 5 -13 11 0 7 -22 35
-49 63 -28 28 -88 90 -134 139 -46 48 -89 87 -95 87 -7 0 -12 4 -12 10 0 5
-13 24 -28 42 -47 55 -80 138 -96 234 -17 113 -58 197 -135 276 -88 92 -178
139 -305 159 -86 14 -134 2 -170 -42 -23 -27 -26 -40 -26 -106 0 -69 4 -82 50
-179 73 -153 138 -213 290 -270 19 -8 42 -14 51 -14 37 0 148 -41 193 -71 26
-17 118 -104 204 -191 86 -88 211 -215 278 -281 66 -67 204 -209 307 -316 182
-188 204 -219 178 -247 -5 -5 -11 -25 -15 -46 -5 -29 -2 -41 17 -64 22 -25 32
-28 109 -33 94 -7 97 -8 209 -124 30 -31 62 -57 70 -57 9 0 26 11 39 25 21 23
22 26 7 48 -8 13 -36 44 -61 68 -25 24 -46 51 -46 59 0 9 22 29 49 44 27 16
54 40 60 53 6 13 23 39 38 58 23 29 30 32 47 23 11 -6 43 -16 70 -22 l48 -11
4 -147 c2 -91 0 -158 -7 -175 -6 -15 -19 -61 -30 -101 -10 -40 -25 -80 -34
-88 -23 -23 -18 -31 15 -26 17 2 46 -4 68 -14 30 -15 59 -19 152 -19 219 1
356 46 473 154 34 32 76 65 93 74 56 29 194 51 319 51 213 1 282 -11 290 -51
3 -12 7 -35 10 -49 16 -73 54 -88 151 -60 27 8 76 20 109 27 33 7 69 17 80 22
25 12 85 76 85 90 0 6 6 18 14 26 28 32 65 162 86 302 11 79 30 200 41 269 19
120 20 130 4 255 -18 148 -68 362 -96 418 -25 48 -37 62 -134 164 -44 46 -86
94 -94 108 -20 32 -49 43 -152 54 -48 6 -104 17 -125 26 -22 9 -66 25 -99 36
-33 11 -71 27 -83 36 -13 8 -45 21 -70 29 -51 15 -98 52 -112 90 -5 13 -10 58
-11 101 -1 77 4 97 57 233 26 69 16 91 -61 128 -82 40 -145 62 -193 67 -20 2
-102 12 -182 23 -173 24 -377 43 -440 41 -25 0 -58 4 -75 11 -42 16 -702 24
-730 8z m1058 -629 c22 -40 22 -51 -5 -76 -65 -60 -329 -125 -385 -95 -23 13
-55 71 -46 85 3 6 47 7 104 3 87 -6 105 -4 144 13 25 11 63 38 85 61 47 49 78
52 103 9z m-748 -659 c-9 -14 -45 -13 -45 1 0 7 8 18 18 25 14 10 18 10 25 -2
4 -8 5 -19 2 -24z m93 -160 c26 -24 31 -80 7 -80 -8 0 -15 9 -15 20 0 22 -21
36 -68 43 -44 7 -50 14 -21 26 39 16 74 12 97 -9z"/>
<path d="M1572 2961 c-10 -6 -9 -10 7 -14 14 -3 21 0 21 9 0 16 -9 18 -28 5z"/>
<path d="M1365 2928 c-22 -5 -48 -9 -57 -9 -25 0 -22 -16 12 -74 78 -132 74
-117 76 -285 2 -240 14 -299 69 -360 13 -14 37 -52 54 -84 53 -100 66 -108 70
-43 1 29 9 49 26 64 13 12 26 32 30 43 3 11 11 21 16 21 19 3 24 4 35 11 6 4
14 5 17 1 4 -3 31 -7 61 -8 50 -3 54 -1 59 22 2 13 -1 43 -9 66 -8 28 -13 34
-13 19 -1 -13 -7 -22 -13 -21 -19 3 -71 -12 -87 -25 -11 -8 -15 -8 -18 2 -3 7
-22 12 -48 12 -24 0 -46 4 -49 9 -3 4 -19 11 -36 14 -18 4 -30 13 -30 22 0 8
-9 15 -20 15 -63 0 -89 45 -76 132 14 91 15 124 4 145 -12 24 -3 93 12 93 6 0
10 17 10 38 0 21 6 46 14 57 15 22 32 84 27 100 -2 6 -4 16 -4 23 0 14 -71 15
-132 0z m92 -4 c-3 -3 -12 -4 -19 -1 -8 3 -5 6 6 6 11 1 17 -2 13 -5z"/>
<path d="M1573 2923 c-15 -5 -18 -83 -4 -83 5 0 16 -3 25 -6 12 -4 16 0 16 16
0 11 -4 18 -10 15 -9 -6 -12 1 -9 23 1 4 5 6 10 5 11 -3 11 0 3 21 -6 17 -11
18 -31 9z"/>
<path d="M1578 2563 c-21 -2 -38 -10 -39 -16 0 -7 -2 -23 -3 -37 -4 -36 27
-103 55 -117 48 -23 96 -33 140 -29 24 3 47 5 51 5 14 2 38 60 31 78 -14 39
-50 76 -95 99 -46 23 -61 25 -140 17z"/>
</g>
</svg>
